Coordinates
version=1
nRows=6
nColumns=36
inDegrees=yes

Units are S.I. units (second, meters, Newtons, ...)
If the header above contains a line with 'inDegrees', this indicates whether rotational values are in degrees (yes) or radians (no).

endheader
time	pelvis_tilt	pelvis_list	pelvis_rotation	pelvis_tx	pelvis_ty	pelvis_tz	hip_flexion_r	hip_adduction_r	hip_rotation_r	knee_angle_r	knee_angle_r_beta	ankle_angle_r	subtalar_angle_r	mtp_angle_r	hip_flexion_l	hip_adduction_l	hip_rotation_l	knee_angle_l	knee_angle_l_beta	ankle_angle_l	subtalar_angle_l	mtp_angle_l	lumbar_extension	lumbar_bending	lumbar_rotation	arm_flex_r	arm_add_r	arm_rot_r	elbow_flex_r	pro_sup_r	arm_flex_l	arm_add_l	arm_rot_l	elbow_flex_l	pro_sup_l
      2.70000000	    -36.11456955	      2.93234774	     -6.58786754	      0.98575740	      0.58761408	     -0.38614012	     95.63760046	    -16.76071908	     -2.88551926	     95.44266984	      1.66578884	     39.07073420	     -5.30337160	     -7.49999987	    100.40185131	    -18.97052297	      7.06281079	     93.56371970	      1.63299497	     31.55678048	     -6.09668392	     -7.49999987	    -21.34496472	      4.49983551	     10.29203456	     86.15255129	    -13.85190838	     69.04379511	    133.04609186	     97.63658337	     84.66536698	      2.85539812	     66.37226881	    116.24651560	    104.63601510
      2.71666670	    -36.70019064	      2.86980611	     -6.67793208	      0.98547116	      0.57708000	     -0.38637359	     97.21753976	    -16.65611289	     -2.77122574	     96.59165587	      1.68584242	     39.05450036	     -5.40058920	     -7.49999987	    102.13710533	    -18.94855239	      7.68752665	     94.70843654	      1.65297405	     31.35342631	     -6.39568606	     -7.49999987	    -21.41401720	      4.54142343	     11.33073008	     86.99353659	    -14.75850829	     71.02325556	    134.47128514	     96.33732368	     85.47437583	      3.84906155	     67.01359780	    117.18404886	    104.54381827
      2.73333330	    -37.01295831	      2.85626831	     -6.61269729	      0.98602016	      0.57100569	     -0.38805430	     98.58523007	    -16.74959789	     -2.50435974	     97.84810459	      1.70777159	     39.15776717	     -5.39445805	     -7.49999987	    103.52786435	    -18.72717506	      8.20485983	     95.81269235	      1.67224695	     31.34637891	     -6.44768255	     -7.49999987	    -21.84810182	      4.59309542	     11.20068401	     87.32000684	    -14.06168756	     70.67554494	    134.48412815	     95.50456273	     85.75797230	      3.92868031	     66.73560079	    116.46087188	    103.71341139
      2.75000000	    -37.63657806	      2.65493249	     -6.58915332	      0.97483068	      0.56078723	     -0.38897554	    100.19267078	    -16.80985610	     -2.49971516	     98.99141852	      1.72772618	     39.14036258	     -5.43221311	     -7.49999987	    105.46898861	    -18.53987869	      8.91238449	     96.96601176	      1.69237617	     31.23679114	     -6.42062154	     -7.49999987	    -22.05975104	      4.85600975	     11.16978925	     89.22458700	    -13.89250377	     69.55644423	    135.77468613	     95.70249609	     87.68042045	      4.75921318	     67.46398429	    116.74195233	    104.03450187
      2.76666670	    -38.11675851	      2.57332407	     -6.57296796	      0.96877055	      0.55291238	     -0.38588377	    101.82786951	    -16.81545127	     -2.36962622	    100.23826972	      1.74948784	     39.12957997	     -5.34661324	     -7.49999987	    107.27540096	    -18.45482018	      9.47173194	     98.06821312	      1.71161321	     31.00307395	     -6.40995128	     -7.49999987	    -22.40359552	      4.69707025	     11.99865914	     90.58505329	    -15.69261333	     70.35555561	    135.19536619	     95.50731746	     89.25527977	      5.13204027	     68.12011953	    116.02519077	    103.87192631
      2.78333330	    -38.00496433	      2.51855951	     -6.57442295	      0.97580123	      0.54920140	     -0.38812404	    102.68252139	    -16.91507788	     -2.23856995	    101.36237685	      1.76910721	     39.12093519	     -5.41456411	     -7.49999987	    108.16610630	    -18.41021318	      9.80667134	     99.04563612	      1.72867246	     30.90789048	     -6.46210292	     -7.49999987	    -23.18012940	      4.65132597	     12.02314421	     90.54488651	    -15.70777913	     70.44022348	    135.30184235	     95.50033065	     89.46061557	      5.27804689	     67.93912539	    116.12187865	    103.84736975
